Coordinates
version=1
nRows=21
nColumns=12
inDegrees=yes

Units are S.I. units (second, meters, Newtons, ...)
Angles are in degrees

endheader
time	SC_y	SC_z	SC_x	AC_y	AC_z	AC_x	GH_y	GH_z	GH_yy	EL_x	PS_y
       0.0              -20.37          -1.05          25.51          44.24          1.795           10.8          107.0          67.88          126.7          12.43           98.3
   0.04354              -20.38         -1.045          25.51          44.24          1.796          10.79          106.9          67.87          126.7          12.45           98.3
   0.08708              -20.38          -1.04          25.51          44.24          1.797          10.79          106.9          67.87          126.7          12.47          98.31
    0.1306              -20.39         -1.035          25.51          44.24          1.799          10.79          106.8          67.86          126.7          12.48          98.31
    0.1742              -20.39         -1.029          25.51          44.24            1.8          10.78          106.8          67.85          126.7           12.5          98.32
    0.2177               -20.4         -1.023          25.51          44.24          1.801          10.78          106.7          67.85          126.7          12.52          98.33
    0.2613              -20.41         -1.016          25.52          44.24          1.803          10.78          106.7          67.84          126.7          12.54          98.33
    0.3048              -20.41         -1.009          25.52          44.24          1.804          10.77          106.6          67.83          126.7          12.57          98.34
    0.3483              -20.42         -1.002          25.52          44.24          1.806          10.77          106.6          67.82          126.7          12.59          98.35
    0.3919              -20.43        -0.9939          25.52          44.24          1.808          10.76          106.5          67.81          126.7          12.62          98.36
    0.4354              -20.44        -0.9853          25.52          44.24           1.81          10.76          106.5           67.8          126.7          12.64          98.36
     0.479              -20.45         -0.976          25.53          44.24          1.812          10.75          106.4          67.79          126.7          12.67          98.37
    0.5225              -20.46        -0.9661          25.53          44.23          1.815          10.74          106.3          67.77          126.6           12.7          98.38
    0.5661              -20.47        -0.9553          25.53          44.23          1.817          10.74          106.2          67.76          126.6          12.74           98.4
    0.6096              -20.48        -0.9436          25.54          44.23           1.82          10.73          106.1          67.75          126.6          12.78          98.41
    0.6531              -20.49        -0.9309          25.54          44.23          1.823          10.72          106.0          67.73          126.6          12.82          98.42
    0.6967               -20.5        -0.9172          25.54          44.23          1.826          10.71          105.9          67.71          126.6          12.86          98.44
    0.7402              -20.52        -0.9022          25.55          44.23           1.83           10.7          105.8          67.69          126.6          12.91          98.45
    0.7838              -20.53        -0.8858          25.55          44.23          1.834          10.69          105.7          67.67          126.6          12.96          98.47
    0.8273              -20.55        -0.8678          25.56          44.23          1.838          10.68          105.5          67.65          126.6          13.02          98.49
    0.8708              -20.57        -0.8482          25.56          44.23          1.842          10.67          105.4          67.63          126.6          13.09          98.51
